Coordinates
version=1
nRows=24
nColumns=38
inDegrees=no

Units are S.I. units (second, meters, Newtons, ...)
If the header above contains a line with 'inDegrees', this indicates whether rotational values are in degrees (yes) or radians (no).

endheader
time	pelvis_tilt	pelvis_list	pelvis_rotation	pelvis_tx	pelvis_ty	pelvis_tz	hip_flexion_r	hip_adduction_r	hip_rotation_r	knee_angle_r	ankle_angle_r	subtalar_angle_r	mtp_angle_r	hip_flexion_l	hip_adduction_l	hip_rotation_l	knee_angle_l	ankle_angle_l	subtalar_angle_l	mtp_angle_l	lumbar_extension	lumbar_bending	lumbar_rotation	arm_flex_r	arm_add_r	arm_rot_r	elbow_flex_r	pro_sup_r	wrist_flex_r	wrist_dev_r	arm_flex_l	arm_add_l	arm_rot_l	elbow_flex_l	pro_sup_l	wrist_flex_l	wrist_dev_l
145	-0.798503	1.35385	-0.307254	0.839511	0.216132	0.927296	0.0255668	0.245834	-0.15369	0.219994	-0.352084	0	0	0.0137868	-0.550928	-0.192947	1.21277	-0.338789	0	0	-0.244869	0.226324	0.168118	0.118313	-0.207287	-0.405227	1.31638	1.5708	0	0	-0.00864592	-0.213635	-0.723519	0	0.445114	0	0
145.01	-0.805342	1.35827	-0.306472	0.838344	0.208938	0.927673	0.0140149	0.24758	-0.152195	0.207215	-0.343459	0	0	0.0417311	-0.548857	-0.193609	1.25597	-0.259113	0	0	-0.199961	0.267511	0.272945	0.0252383	-0.197542	-0.545768	1.37945	1.5708	0	0	-0.0949742	-0.319099	1.5708	0.482489	0.701442	0	0
145.02	-0.817629	1.36139	-0.302633	0.837111	0.202207	0.927763	0.0058572	0.249372	-0.142858	0.203603	-0.343875	0	0	0.0677842	-0.548045	-0.188545	1.29817	-0.240409	0	0	-0.202168	0.272996	0.293653	0.00039178	-0.187844	-0.57564	1.41484	1.5708	0	0	-0.103394	-0.267789	1.52975	0.395962	0.663818	0	0
145.03	-0.804287	1.3644	-0.324363	0.835657	0.195661	0.928434	-0.00822045	0.249853	-0.13996	0.196538	-0.342822	0	0	0.0870296	-0.537674	-0.179966	1.32551	-0.228066	0	0	-0.208999	0.265803	0.302005	-0.0104179	-0.18033	-0.587425	1.42744	1.5708	0	0	-0.0976261	-0.262546	1.51696	0.38911	0.667106	0	0
145.04	-0.797234	1.36781	-0.340559	0.834304	0.18926	0.929159	-0.0214319	0.250189	-0.137935	0.187901	-0.344279	0	0	0.107748	-0.525572	-0.170268	1.34815	-0.214003	0	0	-0.210724	0.267252	0.327753	-0.0348423	-0.169868	-0.620968	1.45329	1.5708	0	0	-0.0646027	-0.245451	1.31518	0.332892	1.4173	0	0
145.05	-0.803194	1.37257	-0.342879	0.833136	0.182646	0.929304	-0.0307845	0.249659	-0.137318	0.179647	-0.343642	0	0	0.129908	-0.516587	-0.164902	1.36821	-0.205799	0	0	-0.210666	0.260861	0.342214	-0.0516066	-0.161051	-0.640425	1.46788	1.5708	0	0	-0.0519938	-0.237688	1.25027	0.325159	1.5708	0	0
145.06	-0.730044	1.37249	-0.422537	0.831682	0.176841	0.930276	-0.0582318	0.248141	-0.139856	0.16904	-0.342688	0	0	0.132577	-0.491982	-0.138821	1.37927	-0.185526	0	0	-0.249672	0.23121	0.297627	-0.0209802	-0.159178	-0.58924	1.46035	1.5708	0	0	-0.134765	-0.217855	1.11353	0.322748	1.03035	0	0
145.07	-0.723865	1.37612	-0.437568	0.830535	0.170485	0.930449	-0.0701113	0.247586	-0.138633	0.161174	-0.341852	0	0	0.150635	-0.477759	-0.129097	1.38909	-0.179067	0	0	-0.221912	0.234645	0.37535	-0.0802123	-0.148316	-0.678476	1.47486	1.5708	0	0	0.0423223	-0.166199	0.692246	0.951583	1.03035	0	0
145.08	-0.635806	1.37245	-0.532308	0.829234	0.165225	0.931743	-0.100388	0.245675	-0.141047	0.151843	-0.3425	0	0	0.150537	-0.455088	-0.108883	1.37818	-0.156399	0	0	-0.246638	0.231416	0.365131	-0.0158142	-0.15111	-0.645672	1.45325	1.5708	0	0	0.050099	-0.157471	0.675471	1.00637	1.03035	0	0
145.09	-0.344627	1.33062	-0.822135	0.826223	0.160577	0.934253	-0.202642	0.245697	-0.16179	0.122475	-0.345036	0	0	0.0773105	-0.451951	-0.123941	1.38549	-0.160109	0	0	-0.338392	0.107859	0.307911	-0.0151311	-0.166421	-0.582692	1.37782	1.5708	0	0	-0.0618112	-0.176373	0.787435	0	1.5708	0	0
145.1	-0.302955	1.3283	-0.871129	0.824887	0.154752	0.934958	-0.223117	0.241616	-0.164035	0.115252	-0.344421	0	0	0.0869562	-0.436692	-0.121644	1.37131	-0.150061	0	0	-0.347438	0.0887577	0.311396	-0.0212803	-0.163362	-0.585535	1.37509	1.5708	0	0	-0.047751	-0.180561	0.7752	0	1.5708	0	0
145.11	-0.29387	1.32815	-0.888288	0.824086	0.148748	0.934959	-0.235472	0.241172	-0.162911	0.110855	-0.343791	0	0	0.101532	-0.423114	-0.115291	1.38603	-0.148977	0	0	-0.349237	0.0844704	0.315235	-0.0308848	-0.159745	-0.590017	1.38323	1.5708	0	0	-0.0345793	-0.178009	0.768096	0	1.5708	0	0
145.12	-0.308383	1.33434	-0.883405	0.823379	0.142131	0.934804	-0.239189	0.240911	-0.158112	0.106411	-0.343744	0	0	0.119272	-0.423254	-0.13977	1.36016	-0.154189	0	0	-0.298052	0.089445	0.391626	-0.0831235	-0.152073	-0.668179	1.36658	1.5708	0	0	0.0526241	-0.177555	1.5708	0.0385962	1.5708	0	0
145.13	-0.294553	1.33339	-0.903781	0.822284	0.136355	0.934459	-0.251816	0.240733	-0.158126	0.10296	-0.341953	0	0	0.135165	-0.413455	-0.138008	1.35543	-0.152074	0	0	-0.317161	0.0880868	0.391322	-0.0948504	-0.143395	-0.673418	1.4035	1.5708	0	0	0.0318291	-0.169731	1.5418	0	1.5708	0	0
145.14	-0.263247	1.32864	-0.943889	0.821088	0.130699	0.934951	-0.272608	0.238806	-0.15513	0.0937402	-0.341629	0	0	0.136313	-0.407363	-0.149828	1.33601	-0.14986	0	0	-0.339447	0.0791022	0.384887	-0.0973346	-0.135368	-0.670772	1.42642	1.5708	0	0	0.042338	-0.164206	1.48798	0	1.5708	0	0
145.15	-0.224389	1.32135	-0.993736	0.819829	0.124977	0.935721	-0.294231	0.234648	-0.152192	0.0915088	-0.34106	0	0	0.129229	-0.402429	-0.16969	1.30796	-0.149806	0	0	-0.366882	0.0683677	0.370761	-0.093827	-0.130227	-0.655892	1.44658	1.5708	0	0	0.0477657	-0.158317	1.38906	0	1.54696	0	0
145.16	-0.17786	1.3122	-1.05135	0.818439	0.120041	0.937263	-0.317223	0.228328	-0.147215	0.089865	-0.342643	0	0	0.122517	-0.393483	-0.187674	1.27864	-0.156284	0	0	-0.43708	0.0360497	0.258281	-0.0270991	-0.133168	-0.537419	1.45152	1.5708	0	0	0.00579006	-0.0532806	-0.177995	0.0168437	0.52113	0	0
145.17	-0.171286	1.30907	-1.06723	0.817703	0.114481	0.937123	-0.329035	0.227896	-0.142979	0.089721	-0.3396	0	0	0.132135	-0.39378	-0.214507	1.26217	-0.171806	0	0	-0.454309	0.0291784	0.232789	-0.0192328	-0.131215	-0.509517	1.46189	1.5708	0	0	0.0144905	-0.0442607	-0.311584	0.0691895	0.378297	0	0
145.18	-0.162978	1.30872	-1.08413	0.817036	0.109066	0.937176	-0.337798	0.22543	-0.139576	0.0899931	-0.337134	0	0	0.136074	-0.379623	-0.202781	1.22136	-0.157735	0	0	-0.469622	0.020893	0.209686	-0.0136921	-0.128263	-0.486504	1.47212	1.5708	0	0	0.0187967	-0.0364863	-0.359445	0.159896	0	0	0
145.19	-0.16029	1.30797	-1.0958	0.816447	0.103504	0.936911	-0.346375	0.224162	-0.135947	0.0905163	-0.334412	0	0	0.141979	-0.373374	-0.211512	1.18342	-0.159205	0	0	-0.483193	0.0150255	0.192792	-0.0131785	-0.124889	-0.470424	1.48621	1.5708	0	0	0.0198856	-0.0388785	-0.357833	0.176478	0	0	0
145.2	-0.150717	1.30619	-1.11378	0.815885	0.0981366	0.9369	-0.355945	0.221405	-0.134714	0.0921072	-0.331068	0	0	0.148492	-0.36807	-0.234962	1.15719	-0.157824	0	0	-0.499625	0.00830108	0.171758	-0.0101852	-0.122279	-0.449831	1.49913	1.5708	0	0	0.0199408	-0.0419241	-0.357409	0.195205	0	0	0
145.21	-0.144551	1.30482	-1.12889	0.815089	0.0926685	0.936949	-0.364199	0.219448	-0.132108	0.0943805	-0.328456	0	0	0.149315	-0.358781	-0.229577	1.1027	-0.170762	0	0	-0.515431	0.00227903	0.152057	-0.00829827	-0.118858	-0.430318	1.51306	1.5708	0	0	0.0232997	-0.0455903	-0.36111	0.211255	0	0	0
145.22	-0.124857	1.29485	-1.15784	0.814748	0.0875027	0.937738	-0.38294	0.216405	-0.133012	0.0956329	-0.32876	0	0	0.139779	-0.349929	-0.237188	1.05536	-0.183455	0	0	-0.557611	-0.0447056	0.0584208	0.0458198	-0.126155	-0.325604	1.46684	1.5708	0	0	0.204917	-0.23778	-1.5708	0	0	0	0
145.23	-0.14388	1.30378	-1.14595	0.814311	0.0817902	0.936442	-0.376608	0.216726	-0.129762	0.100993	-0.321679	0	0	0.160319	-0.343439	-0.23435	1.016	-0.189716	0	0	-0.539971	-0.00734725	0.105394	-0.00075911	-0.115891	-0.382161	1.53108	1.5708	0	0	0.0344197	-0.047873	-0.462267	0.249242	0	0	0
